<svg width="24" height="24" viewBox="0 0 24 24" fill="none" xmlns="http://www.w3.org/2000/svg">
<g id="Icon / contacts / address" opacity="0.5">
<g id="Color">
<path fill-rule="evenodd" clip-rule="evenodd" d="M12 6C9.79086 6 8 7.79086 8 10C8 12.2091 9.79086 14 12 14C14.2091 14 16 12.2091 16 10C16 7.79086 14.2091 6 12 6ZM10 10C10 8.89543 10.8954 8 12 8C13.1046 8 14 8.89543 14 10C14 11.1046 13.1046 12 12 12C10.8954 12 10 11.1046 10 10Z" fill="white"/>
<path fill-rule="evenodd" clip-rule="evenodd" d="M12.9722 23.5392C12.269 24.0471 11.6964 24.0221 11.0278 23.5392C6.73809 20.4411 2 15.6285 2 10C2 4.55333 6.55333 0 12 0C17.4467 0 22 4.55333 22 10C22 15.6286 17.2619 20.4411 12.9722 23.5392ZM4 10C4 5.64266 7.64266 2 12 2C16.3573 2 20 5.64267 20 10C20 14.874 15.6667 19.063 12 21.7726C8.33328 19.063 4 14.874 4 10Z" fill="white"/>
</g>
</g>
</svg>
