<svg width="24" height="24" viewBox="0 0 24 24" fill="none" xmlns="http://www.w3.org/2000/svg">
<g id="Icon / contacts / mail">
<path id="Color" fill-rule="evenodd" clip-rule="evenodd" d="M4 3C2.34772 3 1 4.34772 1 6V18C1 19.6523 2.34772 21 4 21H20C21.6523 21 23 19.6523 23 18V6C23 4.34772 21.6523 3 20 3H4ZM3.10663 5.55385C3.27203 5.22688 3.61208 5 4 5H20C20.388 5 20.728 5.22691 20.8934 5.55392L12.0001 11.7793L3.10663 5.55385ZM3 7.92052V18C3 18.5477 3.45228 19 4 19H20C20.5477 19 21 18.5477 21 18V7.92062L12.5735 13.8191C12.2292 14.0602 11.7709 14.0602 11.4266 13.8191L3 7.92052Z" fill="white"/>
</g>
</svg>
