<svg width="24" height="24" viewBox="0 0 24 24" fill="none" xmlns="http://www.w3.org/2000/svg">
<g id="Icon / contacts / tel">
<path id="Color" d="M19.1307 23.0006C19.0419 23.0006 18.953 22.9966 18.8631 22.9888C15.7575 22.6505 12.7735 21.5926 10.1483 19.899C7.71772 18.3509 5.65466 16.2905 4.10339 13.8619C2.40558 11.2382 1.3471 8.25274 1.01305 5.14555C0.974705 4.74173 1.0211 4.33434 1.14926 3.94948C1.27741 3.56461 1.48451 3.21074 1.7573 2.91052C2.03009 2.6103 2.36255 2.37033 2.73341 2.20599C3.10427 2.04164 3.50535 1.95654 3.911 1.95612H6.78551C7.48973 1.94779 8.17253 2.19815 8.70446 2.65973C9.24105 3.12005 9.59167 3.76002 9.69079 4.46002C9.80209 5.30588 10.009 6.13639 10.3075 6.93561C10.5031 7.45656 10.5452 8.02269 10.4287 8.56682C10.3122 9.11096 10.042 9.61024 9.65026 10.0054L8.98571 10.669C10.1006 12.4045 11.5775 13.8785 13.3153 14.9898L13.9784 14.3277C14.3746 13.9349 14.8754 13.6641 15.421 13.5476C15.9667 13.4311 16.5344 13.4737 17.0565 13.6705C17.8543 13.9662 18.6827 14.1719 19.5262 14.2838C20.2333 14.3807 20.8802 14.7339 21.3441 15.2763C21.808 15.8187 22.0567 16.5126 22.0428 17.2261V20.0816C22.0433 20.6923 21.8521 21.2877 21.4963 21.7841C21.1405 22.2804 20.6379 22.6526 20.0594 22.8482C19.7602 22.949 19.4465 23.0005 19.1307 23.0006ZM6.80358 3.95612H3.91296C3.78633 3.95609 3.66109 3.98253 3.54528 4.03375C3.42876 4.0844 3.32439 4.15931 3.23913 4.25348C3.15309 4.34688 3.08771 4.45735 3.04723 4.5777C3.00672 4.69712 2.99191 4.82374 3.00378 4.94928C3.30605 7.74128 4.25898 10.4235 5.786 12.7803C7.18162 14.967 9.03887 16.8217 11.2274 18.2144C13.587 19.7392 16.2697 20.6925 19.0624 20.9986C19.1845 21.0076 19.3071 20.9916 19.4228 20.9517C19.6036 20.8902 19.7607 20.7736 19.8719 20.6182C19.9831 20.4629 20.0429 20.2766 20.0429 20.0856V17.189C20.048 16.9653 19.9707 16.7474 19.8255 16.577C19.6803 16.4066 19.4775 16.2956 19.2558 16.2652C18.2654 16.1338 17.2928 15.8917 16.3563 15.5435C16.1919 15.4794 16.0121 15.4655 15.8397 15.5035C15.6683 15.5399 15.5109 15.625 15.3866 15.7486L14.1747 16.9576C14.0195 17.1113 13.8185 17.2103 13.602 17.2396C13.3855 17.2688 13.1654 17.2267 12.975 17.1197C10.4229 15.6707 8.30878 13.5603 6.85534 11.0108C6.74677 10.8203 6.70383 10.5994 6.73312 10.3821C6.76241 10.1648 6.86231 9.9631 7.01745 9.80814L8.23327 8.5943C8.35454 8.47065 8.43791 8.3149 8.47356 8.14541C8.5092 7.97593 8.49563 7.79978 8.43444 7.63776C8.084 6.69926 7.84076 5.72416 7.70934 4.73102C7.67673 4.51546 7.56752 4.31888 7.40173 4.17731C7.23524 4.03437 7.02301 3.95589 6.80358 3.95612ZM18.1689 10.5982C17.9372 10.5978 17.7127 10.5171 17.5339 10.3697C17.3551 10.2223 17.233 10.0175 17.1884 9.7901C17.0436 9.05113 16.6814 8.37222 16.1483 7.84035C15.6152 7.30849 14.9355 6.94789 14.1962 6.80475C13.9366 6.75328 13.7079 6.60099 13.5604 6.38125C13.4129 6.16152 13.3585 5.89226 13.4092 5.6325C13.4599 5.37274 13.6114 5.14365 13.8307 4.99545C14.05 4.84725 14.319 4.79202 14.579 4.84186C15.7088 5.06126 16.7475 5.61283 17.562 6.42598C18.3766 7.23913 18.9299 8.27685 19.1512 9.40631C19.1765 9.53517 19.1762 9.66775 19.1502 9.79647C19.1242 9.92519 19.0731 10.0475 18.9999 10.1565C18.9266 10.2655 18.8325 10.3589 18.7231 10.4315C18.6137 10.5041 18.491 10.5545 18.3622 10.5797C18.2985 10.592 18.2337 10.5982 18.1689 10.5982ZM21.9989 10.5884C21.7533 10.5882 21.5163 10.4976 21.3332 10.3339C21.15 10.1702 21.0335 9.94482 21.0058 9.70075C20.8117 7.98533 20.0398 6.38695 18.817 5.16827C17.5943 3.94958 15.9933 3.18307 14.2773 2.99469C14.1464 2.98053 14.0197 2.9407 13.9043 2.87748C13.7889 2.81425 13.6871 2.72888 13.6047 2.62625C13.5224 2.52362 13.4611 2.40575 13.4244 2.27939C13.3877 2.15304 13.3762 2.02068 13.3907 1.88989C13.4053 1.75911 13.4454 1.63248 13.509 1.51725C13.5725 1.40203 13.6582 1.30047 13.761 1.2184C13.8639 1.13633 13.9819 1.07536 14.1084 1.03898C14.2348 1.0026 14.3672 0.991537 14.498 1.00641C16.6648 1.24515 18.6862 2.21355 20.23 3.75264C21.7739 5.29173 22.7486 7.31002 22.9941 9.47614C23.0237 9.73973 22.9474 10.0043 22.7821 10.2117C22.6167 10.4191 22.3758 10.5523 22.1122 10.5821C22.0746 10.5864 22.0368 10.5885 21.9989 10.5884Z" fill="white"/>
</g>
</svg>
