<svg width="150" height="150" viewBox="0 0 150 150" fill="none" xmlns="http://www.w3.org/2000/svg">
<g id="Pictogram / Card">
<g id="Group">
<g id="OBJECTS">
<g id="Group_2">
<path id="Vector" d="M148.634 27.5291V86.8684C148.634 92.6735 143.912 97.3828 138.09 97.3828H38.7652C33.2424 97.3828 28.766 92.8861 28.7647 87.3633C28.7621 76.7255 28.7476 84.6042 28.6641 27.5143C28.6641 21.7092 33.372 17 39.1938 17H138.075C143.897 17 148.619 21.7092 148.619 27.5143L148.634 27.5291Z" fill="url(#paint0_linear_1201_653)"/>
<path id="Vector_2" style="mix-blend-mode:multiply" opacity="0.5" d="M121.916 63.7812C121.916 63.7812 121.916 63.8553 121.916 63.8997V97.3975H138.089L121.916 63.7961V63.7812Z" fill="url(#paint1_linear_1201_653)"/>
<g id="Vector_3" style="mix-blend-mode:multiply" opacity="0.5">
<path d="M148.634 33.4971H28.6641V46.8843H148.634V33.4971Z" fill="#333333"/>
</g>
<g id="Vector_4" filter="url(#filter0_b_1201_653)">
<path d="M111.371 53.3857H12.4899C6.66627 53.3857 1.94531 58.0932 1.94531 63.9001V123.239C1.94531 129.046 6.66627 133.754 12.4899 133.754H111.371C117.195 133.754 121.916 129.046 121.916 123.239V63.9001C121.916 58.0932 117.195 53.3857 111.371 53.3857Z" fill="url(#paint2_linear_1201_653)"/>
<path d="M111.371 53.3857H12.4899C6.66627 53.3857 1.94531 58.0932 1.94531 63.9001V123.239C1.94531 129.046 6.66627 133.754 12.4899 133.754H111.371C117.195 133.754 121.916 129.046 121.916 123.239V63.9001C121.916 58.0932 117.195 53.3857 111.371 53.3857Z" stroke="url(#paint3_linear_1201_653)" stroke-width="0.86" stroke-linecap="round" stroke-linejoin="round"/>
</g>
</g>
</g>
</g>
</g>
<defs>
<filter id="filter0_b_1201_653" x="-5.48438" y="45.9556" width="134.83" height="95.228" filterUnits="userSpaceOnUse" color-interpolation-filters="sRGB">
<feFlood flood-opacity="0" result="BackgroundImageFix"/>
<feGaussianBlur in="BackgroundImageFix" stdDeviation="3.5"/>
<feComposite in2="SourceAlpha" operator="in" result="effect1_backgroundBlur_1201_653"/>
<feBlend mode="normal" in="SourceGraphic" in2="effect1_backgroundBlur_1201_653" result="shape"/>
</filter>
<linearGradient id="paint0_linear_1201_653" x1="51.0898" y1="0.813857" x2="144.934" y2="94.9273" gradientUnits="userSpaceOnUse">
<stop stop-color="#8328F2"/>
<stop offset="1" stop-color="#DE1A86"/>
</linearGradient>
<linearGradient id="paint1_linear_1201_653" x1="51.8912" y1="10.7654" x2="138.182" y2="97.2898" gradientUnits="userSpaceOnUse">
<stop stop-color="#8328F2"/>
<stop offset="1" stop-color="#DE1A86"/>
</linearGradient>
<linearGradient id="paint2_linear_1201_653" x1="92.4502" y1="146.282" x2="31.6731" y2="40.7063" gradientUnits="userSpaceOnUse">
<stop stop-color="white" stop-opacity="0"/>
<stop offset="0.2" stop-color="white" stop-opacity="0.02"/>
<stop offset="0.4" stop-color="white" stop-opacity="0.06"/>
<stop offset="0.59" stop-color="white" stop-opacity="0.14"/>
<stop offset="0.79" stop-color="white" stop-opacity="0.25"/>
<stop offset="0.98" stop-color="white" stop-opacity="0.38"/>
<stop offset="1" stop-color="white" stop-opacity="0.4"/>
</linearGradient>
<linearGradient id="paint3_linear_1201_653" x1="61.9304" y1="134.39" x2="61.9304" y2="52.749" gradientUnits="userSpaceOnUse">
<stop stop-color="white" stop-opacity="0"/>
<stop offset="0.11" stop-color="white" stop-opacity="0.03"/>
<stop offset="0.28" stop-color="white" stop-opacity="0.1"/>
<stop offset="0.47" stop-color="white" stop-opacity="0.23"/>
<stop offset="0.69" stop-color="white" stop-opacity="0.4"/>
<stop offset="0.93" stop-color="white" stop-opacity="0.63"/>
<stop offset="1" stop-color="white" stop-opacity="0.7"/>
</linearGradient>
</defs>
</svg>
