<svg width="151" height="150" viewBox="0 0 151 150" fill="none" xmlns="http://www.w3.org/2000/svg">
<g id="Pictogram / List">
<g id="Group">
<path id="Vector" d="M120.276 0V133.871H107.847L56.3346 133.795C40.6346 133.795 53.8003 133.795 29.9531 133.795V0H120.276Z" fill="url(#paint0_linear_1201_640)"/>
<path id="Vector_2" d="M88.3412 15.083H43.4219V19.5346H88.3412V15.083Z" fill="white"/>
<path id="Vector_3" d="M108.373 28.1958H43.4219V32.6474H108.373V28.1958Z" fill="white"/>
<path id="Vector_4" d="M108.373 41.3086V45.7602H43.4219C43.4219 45.7602 43.4219 42.3751 43.4219 41.3086H108.373Z" fill="white"/>
<path id="Vector_5" d="M108.986 54.8389V59.6776L42.8574 59.6776L42.8574 54.8389H108.986Z" fill="white"/>
<path id="Vector_6" d="M108.986 74.1934V79.0321H49.4722C46.9523 79.0321 44.6362 77.1683 42.8574 74.1934H108.986Z" fill="white"/>
<path id="Vector_7" d="M108.986 93.5483V98.387H49.4722C46.9523 98.387 44.6362 96.5232 42.8574 93.5483H108.986Z" fill="white"/>
<g id="Vector_8" filter="url(#filter0_b_1201_640)">
<path d="M47.9218 48.9376C47.3895 44.5828 43.6798 41.3086 39.2928 41.3086H18.196C13.0992 41.3086 9.08308 45.6796 9.53469 50.7602L17.4057 140.728C17.7928 145.228 21.5669 148.663 26.0669 148.663H126.18C130.696 148.663 134.454 145.212 134.841 140.728L141.373 66.0828C141.825 61.0021 137.809 56.6312 132.712 56.6312L56.5508 56.5989C52.1637 56.5989 48.454 53.3247 47.9218 48.9699V48.9376Z" fill="url(#paint1_linear_1201_640)"/>
<path d="M47.9218 48.9376C47.3895 44.5828 43.6798 41.3086 39.2928 41.3086H18.196C13.0992 41.3086 9.08308 45.6796 9.53469 50.7602L17.4057 140.728C17.7928 145.228 21.5669 148.663 26.0669 148.663H126.18C130.696 148.663 134.454 145.212 134.841 140.728L141.373 66.0828C141.825 61.0021 137.809 56.6312 132.712 56.6312L56.5508 56.5989C52.1637 56.5989 48.454 53.3247 47.9218 48.9699V48.9376Z" stroke="url(#paint2_linear_1201_640)" stroke-width="1.06" stroke-linecap="round" stroke-linejoin="round"/>
</g>
</g>
</g>
<defs>
<filter id="filter0_b_1201_640" x="2.9707" y="34.7788" width="144.967" height="120.415" filterUnits="userSpaceOnUse" color-interpolation-filters="sRGB">
<feFlood flood-opacity="0" result="BackgroundImageFix"/>
<feGaussianBlur in="BackgroundImageFix" stdDeviation="3"/>
<feComposite in2="SourceAlpha" operator="in" result="effect1_backgroundBlur_1201_640"/>
<feBlend mode="normal" in="SourceGraphic" in2="effect1_backgroundBlur_1201_640" result="shape"/>
</filter>
<linearGradient id="paint0_linear_1201_640" x1="42.1897" y1="-28.9523" x2="166.828" y2="23.7256" gradientUnits="userSpaceOnUse">
<stop stop-color="#30F3D7"/>
<stop offset="1" stop-color="#0367ED"/>
</linearGradient>
<linearGradient id="paint1_linear_1201_640" x1="111.599" y1="158.421" x2="36.9379" y2="29.1312" gradientUnits="userSpaceOnUse">
<stop stop-color="white" stop-opacity="0"/>
<stop offset="0.2" stop-color="white" stop-opacity="0.02"/>
<stop offset="0.4" stop-color="white" stop-opacity="0.06"/>
<stop offset="0.59" stop-color="white" stop-opacity="0.14"/>
<stop offset="0.79" stop-color="white" stop-opacity="0.25"/>
<stop offset="0.98" stop-color="white" stop-opacity="0.38"/>
<stop offset="1" stop-color="white" stop-opacity="0.4"/>
</linearGradient>
<linearGradient id="paint2_linear_1201_640" x1="75.454" y1="149.518" x2="75.454" y2="40.4538" gradientUnits="userSpaceOnUse">
<stop stop-color="white" stop-opacity="0"/>
<stop offset="0.11" stop-color="white" stop-opacity="0.03"/>
<stop offset="0.28" stop-color="white" stop-opacity="0.1"/>
<stop offset="0.47" stop-color="white" stop-opacity="0.23"/>
<stop offset="0.69" stop-color="white" stop-opacity="0.4"/>
<stop offset="0.93" stop-color="white" stop-opacity="0.63"/>
<stop offset="1" stop-color="white" stop-opacity="0.7"/>
</linearGradient>
</defs>
</svg>
