<svg width="24" height="24" viewBox="0 0 24 24" fill="none" xmlns="http://www.w3.org/2000/svg">
<g id="Icons / Form / Email">
<path id="Color" fill-rule="evenodd" clip-rule="evenodd" d="M4 3C2.34772 3 1 4.34772 1 6V18C1 19.6523 2.34772 21 4 21H20C21.6523 21 23 19.6523 23 18V6C23 4.34772 21.6523 3 20 3H4ZM3.10659 5.55391C3.27198 5.22691 3.61205 5 4 5H20C20.3879 5 20.728 5.22688 20.8934 5.55385L11.9999 11.7793L3.10659 5.55391ZM3 7.92061V18C3 18.5477 3.45228 19 4 19H20C20.5477 19 21 18.5477 21 18V7.92053L12.5734 13.8191C12.2291 14.0602 11.7708 14.0602 11.4265 13.8191L3 7.92061Z" fill="black"/>
</g>
</svg>
