<svg width="535" height="320" viewBox="0 0 535 320" fill="none" xmlns="http://www.w3.org/2000/svg">
<path d="M486.695 265.455L459.908 231.85L482.74 264.067L448.659 276.959L483.944 265.767L485.809 268.398C487.198 270.505 489.685 271.171 491.941 270.035L494.6 268.791L519.887 295.973L496.742 267.788L531.783 251.392L492.08 266.919C490.1 267.692 488.018 267.121 486.695 265.455Z" fill="#DA9135"/>
<path d="M522.346 297.676L534.896 250.637C534.943 250.394 534.893 249.96 534.893 249.96L501.247 263.334L531.783 251.392L496.742 267.788L519.887 295.973L494.6 268.791L491.941 270.035C489.685 271.171 487.198 270.505 485.809 268.398L483.944 265.767L448.659 276.959L482.74 264.067L459.955 231.916L457.984 229.434C457.984 229.434 457.74 229.71 457.652 230.022L445.103 277.061C444.73 278.457 445.531 279.882 446.889 280.246L519.213 299.549C520.571 299.912 521.973 299.072 522.346 297.676Z" fill="#FFD100"/>
<path d="M534.893 249.96C534.839 248.758 534.162 247.721 533.108 247.443L460.784 228.14C459.73 227.863 458.629 228.415 457.984 229.434L486.695 265.455C488.018 267.121 490.1 267.692 492.08 266.919L534.893 249.96Z" fill="#FFDF4F"/>
<path d="M36.6589 203.183L4.01775 182.436L32.8861 203.161L7.66211 224.118L34.4095 204.255L36.7676 205.948C38.5669 207.334 40.8777 207.172 42.4649 205.544L44.363 203.706L73.8461 219.428L45.8923 202.225L70.9069 178.005L41.6704 202.852C40.2119 204.089 38.2731 204.213 36.6589 203.183Z" fill="#DA9135"/>
<path d="M76.4383 220.156L73.3343 176.451C73.3033 176.23 73.1339 175.875 73.1339 175.875L48.4209 197.115L70.9069 178.005L45.8923 202.225L73.8461 219.428L44.363 203.706L42.4649 205.544C40.8777 207.172 38.5669 207.334 36.7676 205.948L34.4095 204.255L7.66211 224.118L32.8861 203.161L4.07659 182.478L1.67253 180.944C1.67253 180.944 1.54562 181.25 1.56222 181.541L4.66615 225.247C4.7575 226.544 5.85668 227.522 7.11891 227.433L74.3201 222.668C75.5824 222.579 76.5296 221.454 76.4383 220.156Z" fill="#FFD100"/>
<path d="M73.1339 175.875C72.7352 174.868 71.8557 174.184 70.8773 174.256L3.67607 179.022C2.69763 179.095 1.92208 179.887 1.67253 180.944L36.6589 203.183C38.2731 204.213 40.2119 204.089 41.6704 202.852L73.1339 175.875Z" fill="#FFDF4F"/>
<path d="M473.833 89.3431L442.36 82.3994L470.873 90.401L457.093 114.001L472.377 90.8232L474.707 91.4768C476.511 92.0494 478.274 91.2637 479.053 89.5367L480.015 87.5565L507.584 91.4647L480.791 85.9611L493.476 59.8653L477.663 87.6549C476.874 89.0398 475.391 89.6896 473.833 89.3431Z" fill="#DA9135"/>
<path d="M509.821 91.2965L494.934 57.9563C494.847 57.7925 494.613 57.5626 494.613 57.5626L481.314 81.2385L493.476 59.8653L480.791 85.9611L507.584 91.4647L480.015 87.5565L479.053 89.5367C478.274 91.2637 476.511 92.0494 474.707 91.4768L472.377 90.8232L457.093 114.001L470.873 90.401L442.418 82.4157L440.098 81.8995C440.098 81.8995 440.086 82.1751 440.182 82.3987L455.069 115.739C455.51 116.729 456.65 117.181 457.613 116.752L508.879 93.8669C509.842 93.4378 510.263 92.2864 509.821 91.2965Z" fill="#FFD100"/>
<path d="M494.613 57.5626C494.014 56.8877 493.13 56.6024 492.384 56.9382L441.119 79.8235C440.374 80.1593 439.992 81.001 440.098 81.8995L473.833 89.3431C475.391 89.6896 476.874 89.0398 477.663 87.6549L494.613 57.5626Z" fill="#FFDF4F"/>
<path d="M135.994 285.845C131.579 285.845 128 282.238 128 277.788V127.902C128 126.423 128.396 125.036 129.086 123.845L244.471 35.5982C246.852 33.7957 249.672 32.8769 252.5 32.8457C255.328 32.8769 258.148 33.7957 260.529 35.5982L375.914 123.845C376.604 125.036 377 126.423 377 127.902V277.788C377 282.238 373.421 285.845 369.006 285.845H135.994Z" fill="#008EF2"/>
<path d="M368.415 274.985L262.855 210.495L259.375 208.375C253.935 205.045 247.085 205.075 241.665 208.435L134.455 274.985L241.365 200.335C247.335 195.885 255.525 195.885 261.505 200.335L368.415 274.985Z" fill="#002E4E"/>
<g clip-path="url(#clip0_1205_2595)">
<g filter="url(#filter0_b_1205_2595)">
<path d="M160 64.8447C160 59.3219 164.477 54.8447 170 54.8447H330C335.523 54.8447 340 59.3219 340 64.8447V308.845C340 314.368 335.523 318.845 330 318.845H170C164.477 318.845 160 314.368 160 308.845V64.8447Z" fill="white" fill-opacity="0.5"/>
<path d="M320 85.2148H180V97.2148H320V85.2148Z" fill="white" fill-opacity="0.6"/>
<path d="M320 117.305H180V129.305H320V117.305Z" fill="white" fill-opacity="0.6"/>
<path d="M320 149.395H180V161.395H320V149.395Z" fill="white" fill-opacity="0.6"/>
<path d="M320 181.485H180V193.485H320V181.485Z" fill="white" fill-opacity="0.6"/>
<path d="M320 213.575H180V225.575H320V213.575Z" fill="white" fill-opacity="0.6"/>
<path d="M320 245.665H180V257.665H320V245.665Z" fill="white" fill-opacity="0.6"/>
<path d="M320 277.755H180V289.755H320V277.755Z" fill="white" fill-opacity="0.6"/>
</g>
<g filter="url(#filter1_b_1205_2595)">
<path d="M320 85.2148H180V97.2148H320V85.2148Z" fill="white" fill-opacity="0.6"/>
<path d="M320 117.305H180V129.305H320V117.305Z" fill="white" fill-opacity="0.6"/>
<path d="M320 149.395H180V161.395H320V149.395Z" fill="white" fill-opacity="0.6"/>
<path d="M320 181.485H180V193.485H320V181.485Z" fill="white" fill-opacity="0.6"/>
<path d="M320 213.575H180V225.575H320V213.575Z" fill="white" fill-opacity="0.6"/>
<path d="M320 245.665H180V257.665H320V245.665Z" fill="white" fill-opacity="0.6"/>
<path d="M320 277.755H180V289.755H320V277.755Z" fill="white" fill-opacity="0.6"/>
</g>
</g>
<defs>
<filter id="filter0_b_1205_2595" x="136" y="30.8447" width="228" height="312" filterUnits="userSpaceOnUse" color-interpolation-filters="sRGB">
<feFlood flood-opacity="0" result="BackgroundImageFix"/>
<feGaussianBlur in="BackgroundImageFix" stdDeviation="12"/>
<feComposite in2="SourceAlpha" operator="in" result="effect1_backgroundBlur_1205_2595"/>
<feBlend mode="normal" in="SourceGraphic" in2="effect1_backgroundBlur_1205_2595" result="shape"/>
</filter>
<filter id="filter1_b_1205_2595" x="156" y="61.2148" width="188" height="252.54" filterUnits="userSpaceOnUse" color-interpolation-filters="sRGB">
<feFlood flood-opacity="0" result="BackgroundImageFix"/>
<feGaussianBlur in="BackgroundImageFix" stdDeviation="12"/>
<feComposite in2="SourceAlpha" operator="in" result="effect1_backgroundBlur_1205_2595"/>
<feBlend mode="normal" in="SourceGraphic" in2="effect1_backgroundBlur_1205_2595" result="shape"/>
</filter>
<clipPath id="clip0_1205_2595">
<rect width="180" height="109" fill="white" transform="translate(160 55)"/>
</clipPath>
</defs>
</svg>
