<svg width="24" height="24" viewBox="0 0 24 24" fill="none" xmlns="http://www.w3.org/2000/svg">
<g id="Icons / notification">
<g id="Color">
<path fill-rule="evenodd" clip-rule="evenodd" d="M7.05033 3.05029C5.73758 4.36305 5.00008 6.14353 5.00008 8.00004C5.00008 11.3527 4.28301 13.4347 3.62218 14.6462C3.04092 15.7118 2.49043 16.1337 2.43663 16.1737L2.43377 16.1758C2.07528 16.4221 1.91664 16.8725 2.04299 17.2898C2.17068 17.7116 2.55941 18 3.00008 18H21.0001C21.4407 18 21.8295 17.7116 21.9572 17.2898C22.0835 16.8725 21.9249 16.4221 21.5664 16.1758L21.5635 16.1737C21.5097 16.1337 20.9592 15.7118 20.378 14.6462C19.7171 13.4347 19.0001 11.3527 19.0001 8.00004C19.0001 6.14353 18.2626 4.36305 16.9498 3.05029C14.2539 0.354329 9.74629 0.35433 7.05033 3.05029ZM18.8508 16H5.1494C6.06454 14.5005 7.00008 11.9781 7.00008 8.00004C7.00008 6.67396 7.52686 5.40219 8.46454 4.46451C10.3902 2.53882 13.6099 2.53882 15.5356 4.46451C16.4733 5.40219 17.0001 6.67396 17.0001 8.00004C17.0001 11.9781 17.9356 14.5005 18.8508 16Z" fill="#002E4E"/>
<path d="M11.1349 20.4982C10.8578 20.0205 10.2459 19.8578 9.76817 20.135C9.29044 20.4121 9.12782 21.024 9.40494 21.5017C10.5372 23.4536 13.4627 23.4536 14.5949 21.5017C14.8721 21.024 14.7094 20.4121 14.2317 20.135C13.754 19.8578 13.1421 20.0205 12.8649 20.4982C12.4875 21.1488 11.5124 21.1488 11.1349 20.4982Z" fill="#002E4E"/>
</g>
</g>
</svg>
