<svg width="24" height="24" viewBox="0 0 24 24" fill="none" xmlns="http://www.w3.org/2000/svg">
<g id="Icon / contacts / tel" opacity="0.5">
<path id="Color" d="M19.1307 23.0001C19.0419 23.0001 18.953 22.9962 18.8631 22.9883C15.7575 22.6501 12.7735 21.5921 10.1483 19.8985C7.71772 18.3504 5.65466 16.29 4.10339 13.8614C2.40558 11.2377 1.3471 8.25226 1.01305 5.14506C0.974705 4.74124 1.0211 4.33385 1.14926 3.94899C1.27741 3.56412 1.48451 3.21025 1.7573 2.91003C2.03009 2.60981 2.36255 2.36984 2.73341 2.2055C3.10427 2.04116 3.50535 1.95605 3.911 1.95563H6.78551C7.48973 1.9473 8.17253 2.19766 8.70446 2.65924C9.24105 3.11956 9.59167 3.75953 9.69079 4.45953C9.80209 5.30539 10.009 6.1359 10.3075 6.93512C10.5031 7.45607 10.5452 8.0222 10.4287 8.56633C10.3122 9.11047 10.042 9.60976 9.65026 10.0049L8.98571 10.6685C10.1006 12.404 11.5775 13.878 13.3153 14.9893L13.9784 14.3272C14.3746 13.9344 14.8754 13.6636 15.421 13.5471C15.9667 13.4306 16.5344 13.4732 17.0565 13.67C17.8543 13.9657 18.6827 14.1714 19.5262 14.2833C20.2333 14.3803 20.8802 14.7335 21.3441 15.2759C21.808 15.8182 22.0567 16.5121 22.0428 17.2257V20.0811C22.0433 20.6918 21.8521 21.2873 21.4963 21.7836C21.1405 22.2799 20.6379 22.6521 20.0594 22.8477C19.7602 22.9486 19.4465 23 19.1307 23.0001ZM6.80358 3.95563H3.91296C3.78633 3.9556 3.66109 3.98204 3.54528 4.03326C3.42876 4.08391 3.32439 4.15882 3.23913 4.25299C3.15309 4.34639 3.08771 4.45686 3.04723 4.57721C3.00672 4.69663 2.99191 4.82326 3.00378 4.94879C3.30605 7.7408 4.25898 10.423 5.786 12.7799C7.18162 14.9665 9.03887 16.8213 11.2274 18.2139C13.587 19.7387 16.2697 20.6921 19.0624 20.9981C19.1845 21.0071 19.3071 20.9911 19.4228 20.9512C19.6036 20.8897 19.7607 20.7731 19.8719 20.6177C19.9831 20.4624 20.0429 20.2761 20.0429 20.0851V17.1885C20.048 16.9648 19.9707 16.7469 19.8255 16.5765C19.6803 16.4061 19.4775 16.2952 19.2558 16.2647C18.2654 16.1333 17.2928 15.8912 16.3563 15.543C16.1919 15.4789 16.0121 15.465 15.8397 15.503C15.6683 15.5394 15.5109 15.6245 15.3866 15.7482L14.1747 16.9571C14.0195 17.1108 13.8185 17.2098 13.602 17.2391C13.3855 17.2683 13.1654 17.2262 12.975 17.1192C10.4229 15.6702 8.30878 13.5598 6.85534 11.0103C6.74677 10.8198 6.70383 10.5989 6.73312 10.3816C6.76241 10.1643 6.86231 9.96261 7.01745 9.80765L8.23327 8.59381C8.35454 8.47016 8.43791 8.31441 8.47356 8.14493C8.5092 7.97544 8.49563 7.7993 8.43444 7.63727C8.084 6.69877 7.84076 5.72367 7.70934 4.73053C7.67673 4.51498 7.56752 4.31839 7.40173 4.17682C7.23524 4.03388 7.02301 3.9554 6.80358 3.95563ZM18.1689 10.5977C17.9372 10.5974 17.7127 10.5166 17.5339 10.3692C17.3551 10.2219 17.233 10.017 17.1884 9.78961C17.0436 9.05064 16.6814 8.37173 16.1483 7.83987C15.6152 7.308 14.9355 6.9474 14.1962 6.80426C13.9366 6.75279 13.7079 6.6005 13.5604 6.38076C13.4129 6.16103 13.3585 5.89178 13.4092 5.63201C13.4599 5.37225 13.6114 5.14317 13.8307 4.99496C14.05 4.84676 14.319 4.79153 14.579 4.84137C15.7088 5.06077 16.7475 5.61235 17.562 6.42549C18.3766 7.23864 18.9299 8.27636 19.1512 9.40582C19.1765 9.53468 19.1762 9.66726 19.1502 9.79598C19.1242 9.92471 19.0731 10.047 18.9999 10.156C18.9266 10.265 18.8325 10.3584 18.7231 10.431C18.6137 10.5037 18.491 10.554 18.3622 10.5792C18.2985 10.5915 18.2337 10.5977 18.1689 10.5977ZM21.9989 10.588C21.7533 10.5877 21.5163 10.4971 21.3332 10.3334C21.15 10.1697 21.0335 9.94433 21.0058 9.70026C20.8117 7.98484 20.0398 6.38647 18.817 5.16778C17.5943 3.94909 15.9933 3.18258 14.2773 2.9942C14.1464 2.98004 14.0197 2.94021 13.9043 2.87699C13.7889 2.81376 13.6871 2.72839 13.6047 2.62576C13.5224 2.52313 13.4611 2.40526 13.4244 2.27891C13.3877 2.15255 13.3762 2.02019 13.3907 1.88941C13.4053 1.75862 13.4454 1.63199 13.509 1.51676C13.5725 1.40154 13.6582 1.29998 13.761 1.21791C13.8639 1.13584 13.9819 1.07487 14.1084 1.03849C14.2348 1.00212 14.3672 0.991048 14.498 1.00592C16.6648 1.24466 18.6862 2.21307 20.23 3.75215C21.7739 5.29124 22.7486 7.30953 22.9941 9.47565C23.0237 9.73924 22.9474 10.0038 22.7821 10.2112C22.6167 10.4186 22.3758 10.5518 22.1122 10.5817C22.0746 10.5859 22.0368 10.588 21.9989 10.588Z" fill="white"/>
</g>
</svg>
